<svg xmlns="http://www.w3.org/2000/svg" viewBox="0 0 128 128" width="128" height="128">
  <!-- Female Stylist -->
  <defs>
    <radialGradient id="face2" cx="0.5" cy="0.4" r="0.55"><stop offset="0%" stop-color="#fce0c4"/><stop offset="100%" stop-color="#ecc8a0"/></radialGradient>
    <radialGradient id="bgr2" cx="0.5" cy="0.5" r="0.6"><stop offset="0%" stop-color="#f5c6e0"/><stop offset="100%" stop-color="#e8a0c8"/></radialGradient>
  </defs>
  <circle cx="64" cy="64" r="64" fill="url(#bgr2)"/>

  <!-- Hair behind (long) -->
  <path d="M28 50 C28 50 30 80 36 100 L92 100 C98 80 100 50 100 50" fill="#1c0f04"/>

  <!-- Body -->
  <ellipse cx="64" cy="118" rx="42" ry="24" fill="#e84393"/>
  <ellipse cx="64" cy="116" rx="38" ry="20" fill="#fd79a8"/>

  <!-- Neck -->
  <path d="M55 82 C55 90 58 94 64 94 C70 94 73 90 73 82Z" fill="url(#face2)"/>

  <!-- Head -->
  <ellipse cx="64" cy="52" rx="30" ry="32" fill="url(#face2)"/>

  <!-- Ears -->
  <ellipse cx="34" cy="54" rx="5" ry="7" fill="#ecc8a0"/>
  <ellipse cx="94" cy="54" rx="5" ry="7" fill="#ecc8a0"/>
  <!-- Earrings -->
  <circle cx="34" cy="63" r="3" fill="#f9ca24" opacity="0.8"/>
  <circle cx="94" cy="63" r="3" fill="#f9ca24" opacity="0.8"/>

  <!-- Hair front -->
  <path d="M34 48 C34 20 46 10 64 10 C82 10 94 20 94 48" fill="#1c0f04"/>
  <path d="M38 38 C42 14 54 8 64 8 C74 8 86 14 90 38" fill="#1c0f04"/>
  <!-- Hair side flow -->
  <path d="M34 48 C30 58 28 72 30 86" stroke="#1c0f04" stroke-width="8" fill="none" stroke-linecap="round"/>
  <path d="M94 48 C98 58 100 72 98 86" stroke="#1c0f04" stroke-width="8" fill="none" stroke-linecap="round"/>
  <!-- Hair shine -->
  <path d="M48 16 C54 22 52 32 50 38" stroke="#3d2210" stroke-width="1.5" fill="none" opacity="0.3"/>
  <path d="M68 14 C70 22 68 32 66 38" stroke="#3d2210" stroke-width="1.5" fill="none" opacity="0.3"/>

  <!-- Eyebrows -->
  <path d="M44 38 C48 34 54 34 58 37" stroke="#1c0f04" stroke-width="2.2" fill="none" stroke-linecap="round"/>
  <path d="M70 37 C74 34 80 34 84 38" stroke="#1c0f04" stroke-width="2.2" fill="none" stroke-linecap="round"/>

  <!-- Eyes -->
  <ellipse cx="52" cy="48" rx="7" ry="6.5" fill="white"/>
  <circle cx="53" cy="48.5" r="4.5" fill="#5c3a1a"/>
  <circle cx="53" cy="48.5" r="2.8" fill="#0e0804"/>
  <ellipse cx="55" cy="46.5" rx="1.8" ry="1.4" fill="white" opacity="0.8"/>
  <circle cx="51.5" cy="50" r="0.8" fill="white" opacity="0.35"/>
  <path d="M45 46 C48 43 56 43 59 46" stroke="#1c0f04" stroke-width="1.2" fill="none"/>

  <ellipse cx="76" cy="48" rx="7" ry="6.5" fill="white"/>
  <circle cx="77" cy="48.5" r="4.5" fill="#5c3a1a"/>
  <circle cx="77" cy="48.5" r="2.8" fill="#0e0804"/>
  <ellipse cx="79" cy="46.5" rx="1.8" ry="1.4" fill="white" opacity="0.8"/>
  <circle cx="75.5" cy="50" r="0.8" fill="white" opacity="0.35"/>
  <path d="M69 46 C72 43 80 43 83 46" stroke="#1c0f04" stroke-width="1.2" fill="none"/>

  <!-- Eyelashes -->
  <path d="M45 45.5 L43 43" stroke="#1c0f04" stroke-width="1" stroke-linecap="round"/>
  <path d="M59 45.5 L61 43" stroke="#1c0f04" stroke-width="1" stroke-linecap="round"/>
  <path d="M69 45.5 L67 43" stroke="#1c0f04" stroke-width="1" stroke-linecap="round"/>
  <path d="M83 45.5 L85 43" stroke="#1c0f04" stroke-width="1" stroke-linecap="round"/>

  <!-- Nose -->
  <ellipse cx="64" cy="60" rx="4" ry="2.5" fill="#deb08a" opacity="0.45"/>
  <path d="M60.5 60 C62 62 66 62 67.5 60" stroke="#d0a07a" stroke-width="1" fill="none" stroke-linecap="round"/>

  <!-- Smile -->
  <path d="M52 68 C56 76 72 76 76 68" fill="#c05040"/>
  <path d="M52 68 C56 72 72 72 76 68" fill="white"/>
  <path d="M52 68 C56 76 72 76 76 68" fill="none" stroke="#a84030" stroke-width="0.8"/>
  <path d="M54 74 C60 78 68 78 74 74" fill="#d06858" opacity="0.45"/>

  <!-- Cheeks -->
  <ellipse cx="40" cy="60" rx="7" ry="4" fill="#f0a898" opacity="0.18"/>
  <ellipse cx="88" cy="60" rx="7" ry="4" fill="#f0a898" opacity="0.18"/>
</svg>
