<svg xmlns="http://www.w3.org/2000/svg" viewBox="0 0 128 128" width="128" height="128">
  <!-- Male Doctor -->
  <defs>
    <radialGradient id="face3" cx="0.5" cy="0.4" r="0.55"><stop offset="0%" stop-color="#d4a06a"/><stop offset="100%" stop-color="#c08850"/></radialGradient>
    <radialGradient id="bgr3" cx="0.5" cy="0.5" r="0.6"><stop offset="0%" stop-color="#a8e6cf"/><stop offset="100%" stop-color="#7ec8a0"/></radialGradient>
  </defs>
  <circle cx="64" cy="64" r="64" fill="url(#bgr3)"/>

  <!-- Body / Lab coat -->
  <ellipse cx="64" cy="118" rx="42" ry="24" fill="#f0f0f0"/>
  <ellipse cx="64" cy="116" rx="38" ry="20" fill="white"/>
  <!-- Coat lapels -->
  <path d="M50 96 L64 106 L78 96" fill="none" stroke="#ddd" stroke-width="2" stroke-linejoin="round"/>

  <!-- Stethoscope -->
  <path d="M54 100 C54 110 60 116 64 116 C68 116 74 110 74 100" stroke="#555" stroke-width="2.5" fill="none" stroke-linecap="round"/>
  <circle cx="64" cy="116" r="3" fill="#555"/>

  <!-- Neck -->
  <path d="M55 82 C55 90 58 94 64 94 C70 94 73 90 73 82Z" fill="url(#face3)"/>

  <!-- Head -->
  <ellipse cx="64" cy="52" rx="30" ry="32" fill="url(#face3)"/>

  <!-- Ears -->
  <ellipse cx="34" cy="54" rx="5" ry="7" fill="#c08850"/>
  <ellipse cx="34" cy="54" rx="3" ry="4.5" fill="#a87840" opacity="0.4"/>
  <ellipse cx="94" cy="54" rx="5" ry="7" fill="#c08850"/>
  <ellipse cx="94" cy="54" rx="3" ry="4.5" fill="#a87840" opacity="0.4"/>

  <!-- Hair -->
  <path d="M34 46 C34 20 46 10 64 10 C82 10 94 20 94 46" fill="#0a0604"/>
  <path d="M38 38 C42 14 54 8 64 8 C74 8 86 14 90 38" fill="#0a0604"/>
  <path d="M34 46 C33 50 34 54 36 56" fill="#0a0604"/>
  <path d="M94 46 C95 50 94 54 92 56" fill="#0a0604"/>
  <path d="M50 12 C54 18 52 28 50 34" stroke="#1a1008" stroke-width="1" fill="none" opacity="0.3"/>
  <path d="M72 12 C70 18 72 28 74 34" stroke="#1a1008" stroke-width="1" fill="none" opacity="0.3"/>

  <!-- Eyebrows -->
  <path d="M44 38 C48 34 54 34 58 37" stroke="#0a0604" stroke-width="2.8" fill="none" stroke-linecap="round"/>
  <path d="M70 37 C74 34 80 34 84 38" stroke="#0a0604" stroke-width="2.8" fill="none" stroke-linecap="round"/>

  <!-- Eyes -->
  <ellipse cx="52" cy="48" rx="7" ry="6.5" fill="white"/>
  <circle cx="53" cy="48.5" r="4.5" fill="#3a2510"/>
  <circle cx="53" cy="48.5" r="2.8" fill="#0e0804"/>
  <ellipse cx="55" cy="46.5" rx="1.8" ry="1.4" fill="white" opacity="0.8"/>
  <circle cx="51.5" cy="50" r="0.8" fill="white" opacity="0.35"/>
  <path d="M45 46 C48 43 56 43 59 46" stroke="#0a0604" stroke-width="1.2" fill="none"/>

  <ellipse cx="76" cy="48" rx="7" ry="6.5" fill="white"/>
  <circle cx="77" cy="48.5" r="4.5" fill="#3a2510"/>
  <circle cx="77" cy="48.5" r="2.8" fill="#0e0804"/>
  <ellipse cx="79" cy="46.5" rx="1.8" ry="1.4" fill="white" opacity="0.8"/>
  <circle cx="75.5" cy="50" r="0.8" fill="white" opacity="0.35"/>
  <path d="M69 46 C72 43 80 43 83 46" stroke="#0a0604" stroke-width="1.2" fill="none"/>

  <!-- Nose -->
  <ellipse cx="64" cy="60" rx="4" ry="2.5" fill="#a87840" opacity="0.4"/>
  <path d="M60.5 60 C62 62 66 62 67.5 60" stroke="#a07038" stroke-width="1" fill="none" stroke-linecap="round"/>

  <!-- Smile -->
  <path d="M52 68 C56 76 72 76 76 68" fill="#c05040"/>
  <path d="M52 68 C56 72 72 72 76 68" fill="white"/>
  <path d="M52 68 C56 76 72 76 76 68" fill="none" stroke="#a84030" stroke-width="0.8"/>
  <path d="M54 74 C60 78 68 78 74 74" fill="#d06858" opacity="0.45"/>

  <!-- Cheeks -->
  <ellipse cx="40" cy="60" rx="7" ry="4" fill="#d09878" opacity="0.18"/>
  <ellipse cx="88" cy="60" rx="7" ry="4" fill="#d09878" opacity="0.18"/>
</svg>
