<svg xmlns="http://www.w3.org/2000/svg" viewBox="0 0 128 128" width="128" height="128">
  <!-- Female Nurse with Bun -->
  <defs>
    <radialGradient id="face12" cx="0.5" cy="0.4" r="0.55"><stop offset="0%" stop-color="#fce0c4"/><stop offset="100%" stop-color="#ecc8a0"/></radialGradient>
    <radialGradient id="bgr12" cx="0.5" cy="0.5" r="0.6"><stop offset="0%" stop-color="#f0c0e8"/><stop offset="100%" stop-color="#d8a0d0"/></radialGradient>
  </defs>
  <circle cx="64" cy="64" r="64" fill="url(#bgr12)"/>

  <!-- Hair behind -->
  <path d="M34 50 C34 58 36 72 40 84 L88 84 C92 72 94 58 94 50" fill="#2a1206"/>

  <!-- Body / Nurse uniform -->
  <ellipse cx="64" cy="118" rx="42" ry="24" fill="white"/>
  <ellipse cx="64" cy="116" rx="38" ry="20" fill="#f8f8f8"/>
  <path d="M50 96 L64 106 L78 96" fill="none" stroke="#e8e8e8" stroke-width="1.8" stroke-linejoin="round"/>

  <!-- Neck -->
  <path d="M55 82 C55 90 58 94 64 94 C70 94 73 90 73 82Z" fill="url(#face12)"/>

  <!-- Head -->
  <ellipse cx="64" cy="52" rx="30" ry="32" fill="url(#face12)"/>

  <!-- Ears -->
  <ellipse cx="34" cy="54" rx="5" ry="7" fill="#ecc8a0"/>
  <ellipse cx="94" cy="54" rx="5" ry="7" fill="#ecc8a0"/>

  <!-- Hair front -->
  <path d="M34 46 C34 20 46 10 64 10 C82 10 94 20 94 46" fill="#2a1206"/>
  <path d="M38 38 C42 14 54 8 64 8 C74 8 86 14 90 38" fill="#2a1206"/>
  <path d="M34 46 C32 54 32 64 34 72" stroke="#2a1206" stroke-width="5" fill="none" stroke-linecap="round"/>
  <path d="M94 46 C96 54 96 64 94 72" stroke="#2a1206" stroke-width="5" fill="none" stroke-linecap="round"/>

  <!-- Hair bun -->
  <ellipse cx="64" cy="8" rx="12" ry="10" fill="#2a1206"/>
  <ellipse cx="64" cy="8" rx="8" ry="7" fill="#3d1c0a" opacity="0.4"/>

  <!-- Nurse cap -->
  <rect x="48" y="16" width="32" height="8" rx="3" fill="white"/>
  <!-- Cross on cap -->
  <rect x="63" y="16" width="2" height="8" fill="#e84393"/>
  <rect x="60" y="18.5" width="8" height="2.5" rx="0.5" fill="#e84393"/>

  <!-- Hair texture -->
  <path d="M48 14 C54 22 50 32 48 38" stroke="#3d1c0a" stroke-width="1" fill="none" opacity="0.3"/>
  <path d="M70 12 C68 22 70 32 72 38" stroke="#3d1c0a" stroke-width="1" fill="none" opacity="0.3"/>

  <!-- Eyebrows -->
  <path d="M44 38 C48 34 54 34 58 37" stroke="#2a1206" stroke-width="2.2" fill="none" stroke-linecap="round"/>
  <path d="M70 37 C74 34 80 34 84 38" stroke="#2a1206" stroke-width="2.2" fill="none" stroke-linecap="round"/>

  <!-- Eyes -->
  <ellipse cx="52" cy="48" rx="7" ry="6.5" fill="white"/>
  <circle cx="53" cy="48.5" r="4.5" fill="#5c3a1a"/>
  <circle cx="53" cy="48.5" r="2.8" fill="#0e0804"/>
  <ellipse cx="55" cy="46.5" rx="1.8" ry="1.4" fill="white" opacity="0.8"/>
  <circle cx="51.5" cy="50" r="0.8" fill="white" opacity="0.35"/>
  <path d="M45 46 C48 43 56 43 59 46" stroke="#2a1206" stroke-width="1.2" fill="none"/>

  <ellipse cx="76" cy="48" rx="7" ry="6.5" fill="white"/>
  <circle cx="77" cy="48.5" r="4.5" fill="#5c3a1a"/>
  <circle cx="77" cy="48.5" r="2.8" fill="#0e0804"/>
  <ellipse cx="79" cy="46.5" rx="1.8" ry="1.4" fill="white" opacity="0.8"/>
  <circle cx="75.5" cy="50" r="0.8" fill="white" opacity="0.35"/>
  <path d="M69 46 C72 43 80 43 83 46" stroke="#2a1206" stroke-width="1.2" fill="none"/>

  <!-- Eyelashes -->
  <path d="M45 45.5 L43 43" stroke="#2a1206" stroke-width="1" stroke-linecap="round"/>
  <path d="M59 45.5 L61 43" stroke="#2a1206" stroke-width="1" stroke-linecap="round"/>
  <path d="M69 45.5 L67 43" stroke="#2a1206" stroke-width="1" stroke-linecap="round"/>
  <path d="M83 45.5 L85 43" stroke="#2a1206" stroke-width="1" stroke-linecap="round"/>

  <!-- Nose -->
  <ellipse cx="64" cy="60" rx="4" ry="2.5" fill="#deb08a" opacity="0.45"/>
  <path d="M60.5 60 C62 62 66 62 67.5 60" stroke="#d0a07a" stroke-width="1" fill="none" stroke-linecap="round"/>

  <!-- Smile -->
  <path d="M52 68 C56 76 72 76 76 68" fill="#c05040"/>
  <path d="M52 68 C56 72 72 72 76 68" fill="white"/>
  <path d="M52 68 C56 76 72 76 76 68" fill="none" stroke="#a84030" stroke-width="0.8"/>
  <path d="M54 74 C60 78 68 78 74 74" fill="#d06858" opacity="0.4"/>

  <!-- Cheeks -->
  <ellipse cx="40" cy="60" rx="7" ry="4" fill="#f0a898" opacity="0.18"/>
  <ellipse cx="88" cy="60" rx="7" ry="4" fill="#f0a898" opacity="0.18"/>
</svg>
