<svg id="Layer_1" data-name="Layer 1" xmlns="http://www.w3.org/2000/svg" xmlns:xlink="http://www.w3.org/1999/xlink" viewBox="0 0 761.18 303.2"><defs><style>.cls-1{fill:url(#linear-gradient);}.cls-2{fill:#292929;}</style><linearGradient id="linear-gradient" y1="-58.4" x2="761.18" y2="-58.4" gradientTransform="translate(0 210)" gradientUnits="userSpaceOnUse"><stop offset="0" stop-color="#3bff9d"/><stop offset="1" stop-color="#3bffc8"/></linearGradient></defs><title>Tabby</title><path class="cls-1" d="M702.23,303.2H59A59,59,0,0,1,0,244.17V59A59,59,0,0,1,59,0H702.23a59,59,0,0,1,58.95,59V244.18A59,59,0,0,1,702.23,303.2Z"/><polygon class="cls-2" points="658.74 96.19 618.07 251.64 617.91 251.95 649.68 251.95 690.5 96.19 658.74 96.19"/><path class="cls-2" d="M155,184.62a34.3,34.3,0,0,1-15.31,3.5c-11.42,0-17.9-1.83-18.58-11h0v-.61c0-.38-.08-.76-.08-1.14V148.52l.08-3.2v-19H121v-8.07l.08-3.2V96.8l-28.33,3.73c19.19-3.73,30.16-18.89,30.16-34V57.27H91.09v43.49l-1.83.53v80.58c1.07,22.62,16,36.1,40.44,36.1a65.44,65.44,0,0,0,25.51-5.26l.15-.08V184.37Z"/><polygon class="cls-2" points="160.02 90.33 70.68 104.11 70.68 126.73 160.02 112.95 160.02 90.33"/><polygon class="cls-2" points="160.02 123.46 70.68 137.24 70.68 158.87 160.02 145.09 160.02 123.46"/><path class="cls-2" d="M260.18,133.89c-1.29-25.13-17-40.06-42.58-40.06-14.7,0-26.89,5.71-35.11,16.45s-12.57,26.5-12.57,45.62,4.34,35,12.57,45.62S202.9,218,217.6,218c25.59,0,41.36-15,42.58-40.29v37.93H292V96.41l-31.84,4.87m1.67,54.62c0,22.32-11.73,36.71-29.78,36.71-18.66,0-29.78-13.71-29.78-36.71S213.41,119,232.07,119c9.06,0,16.68,3.5,21.94,10.21C259.11,135.8,261.85,145,261.85,155.9Z"/><path class="cls-2" d="M384.86,93.83c-25.67,0-41.36,14.93-42.58,40.14V61.77l-31.84,4.87v149h31.84V177.69C343.5,203,359.26,218,384.86,218c30,0,47.91-23.23,47.91-62.07S414.86,93.83,384.86,93.83Zm-14.48,98.78c-18.13,0-29.78-14.39-29.78-36.71,0-10.89,2.74-20.11,7.84-26.66,5.26-6.7,12.87-10.21,21.94-10.21,18.66,0,29.78,13.79,29.78,36.94C400.16,178.9,389,192.61,370.38,192.61Z"/><path class="cls-2" d="M519.36,93.83c-25.67,0-41.36,14.93-42.58,40.14V61.77l-31.84,4.87v149h31.84V177.69C478,203,493.76,218,519.36,218c30,0,47.91-23.23,47.91-62.07S549.37,93.83,519.36,93.83ZM505,192.61c-18.13,0-29.78-14.39-29.78-36.71,0-10.89,2.74-20.11,7.84-26.66C488.28,122.54,495.89,119,505,119c18.66,0,29.78,13.79,29.78,36.94C534.74,178.9,523.62,192.61,505,192.61Z"/><polygon class="cls-2" points="567.34 96.19 601.31 96.19 628.96 215.46 598.49 215.46 567.34 96.19"/></svg>