<svg width="87" height="36" viewBox="0 0 87 36" fill="none" xmlns="http://www.w3.org/2000/svg">
<path d="M15.0761 0.506226C12.0947 0.505805 9.18007 1.38952 6.70088 3.04562C4.2217 4.70171 2.2893 7.0558 1.14806 9.81017C0.00681572 12.5645 -0.292003 15.5955 0.28939 18.5197C0.870783 21.4439 2.30627 24.13 4.41432 26.2384C6.52237 28.3467 9.2083 29.7826 12.1324 30.3644C15.0565 30.9462 18.0875 30.6478 20.8421 29.507C23.5966 28.3661 25.951 26.434 27.6074 23.9551C29.2638 21.4761 30.148 18.5617 30.148 15.5802C30.148 11.5827 28.5601 7.7489 25.7337 4.92205C22.9072 2.09519 19.0736 0.50679 15.0761 0.506226ZM15.0761 28.4676C12.5266 28.4681 10.0343 27.7124 7.91426 26.2963C5.79426 24.8801 4.14184 22.867 3.16599 20.5117C2.19015 18.1563 1.93471 15.5645 2.43199 13.064C2.92927 10.5634 4.15693 8.26655 5.95969 6.46378C7.76246 4.66102 10.0594 3.43336 12.5599 2.93608C15.0604 2.43881 17.6523 2.69424 20.0076 3.67009C22.3629 4.64593 24.376 6.29835 25.7922 8.41835C27.2083 10.5384 27.964 13.0307 27.9636 15.5802C27.963 18.998 26.605 22.2756 24.1883 24.6924C21.7715 27.1091 18.4939 28.4671 15.0761 28.4676Z" fill="white"/>
<path d="M14.9219 5.42908C12.8836 5.42869 10.8909 6.02375 9.19587 7.13902C7.50085 8.25428 6.17963 9.83965 5.39931 11.6946C4.61899 13.5496 4.41462 15.5909 4.81204 17.5603C5.20946 19.5297 6.19082 21.3387 7.63202 22.7587C9.07322 24.1787 10.9095 25.1457 12.9087 25.5376C14.9078 25.9295 16.9801 25.7285 18.8633 24.9602C20.7465 24.1919 22.3562 22.8907 23.4887 21.2212C24.6212 19.5517 25.2256 17.5889 25.2256 15.5809C25.2256 12.8888 24.1401 10.307 22.2079 8.40319C20.2756 6.4994 17.6548 5.4296 14.9219 5.42908ZM14.9219 23.5207C13.3273 23.521 11.7683 23.0556 10.4422 22.1831C9.11608 21.3106 8.08245 20.0703 7.472 18.619C6.86156 17.1678 6.70174 15.5708 7.01275 14.0301C7.32376 12.4894 8.09163 11.0741 9.21924 9.96336C10.3469 8.85257 11.7836 8.09616 13.3476 7.78979C14.9117 7.48342 16.5328 7.64086 18.0061 8.24219C19.4793 8.84352 20.7384 9.86174 21.6241 11.168C22.5098 12.4743 22.9824 14.0101 22.982 15.5809C22.982 17.6867 22.1328 19.7062 20.6212 21.1952C19.1097 22.6842 17.0596 23.5207 14.9219 23.5207Z" fill="white"/>
<path d="M46.1479 27.139C45.0571 27.3595 43.9838 27.4465 42.9278 27.4001C41.8718 27.3653 40.9261 27.1506 40.0906 26.7561C39.2667 26.35 38.6459 25.7291 38.2282 24.8937C37.8685 24.1742 37.6712 23.449 37.6364 22.7179C37.6132 21.9752 37.6016 21.1282 37.6016 20.1766V3.11877H40.4213V20.0722C40.4213 20.8497 40.4271 21.5053 40.4387 22.0391C40.4619 22.5729 40.5838 23.0428 40.8043 23.449C41.222 24.2032 41.8834 24.65 42.7885 24.7892C43.7053 24.9285 44.825 24.8937 46.1479 24.6848V27.139ZM37.6019 10.7252V8.34057H46.1479V10.7252H37.6019Z" fill="white"/>
<path d="M55.2773 27.6612C53.8616 27.6612 52.678 27.4059 51.7265 26.8953C50.775 26.3848 50.0613 25.7059 49.5856 24.8588C49.1098 24.0001 48.8719 23.0718 48.8719 22.0739C48.8719 21.0643 49.0692 20.1998 49.4637 19.4804C49.8583 18.7609 50.4037 18.1633 51.0999 17.6876C51.8077 17.2118 52.6316 16.8405 53.5715 16.5736C54.4999 16.3415 55.5268 16.1384 56.6524 15.9644C57.778 15.7787 58.9036 15.6163 60.0292 15.477C61.1547 15.3378 62.1759 15.1985 63.0926 15.0593L62.0657 15.6511C62.1005 13.8989 61.7524 12.5992 61.0213 11.7521C60.3019 10.8934 59.0428 10.4641 57.2442 10.4641C56.0374 10.4641 54.9988 10.7426 54.1285 11.2996C53.2582 11.845 52.649 12.7211 52.3009 13.9279L49.5682 13.1098C50.0091 11.4504 50.8794 10.1566 52.1791 9.22827C53.4903 8.28835 55.1961 7.81839 57.2964 7.81839C59.0022 7.81839 60.4585 8.1317 61.6653 8.75831C62.8837 9.38493 63.754 10.3074 64.2762 11.5259C64.5199 12.0945 64.6766 12.7153 64.7462 13.3883C64.8158 14.0613 64.8506 14.7634 64.8506 15.4944V27.139H62.3268V22.5264L62.9882 22.8746C62.3151 24.4411 61.323 25.6305 60.0118 26.4428C58.7005 27.2551 57.1224 27.6612 55.2773 27.6612ZM55.6603 25.2592C56.8207 25.2592 57.8244 25.0561 58.6715 24.65C59.5302 24.2322 60.2206 23.6752 60.7428 22.979C61.265 22.2712 61.6015 21.4821 61.7524 20.6118C61.9148 20.02 62.0018 19.3702 62.0134 18.6623C62.0367 17.9429 62.0483 17.3917 62.0483 17.0087L63.0752 17.5135C62.1237 17.6412 61.1489 17.7688 60.151 17.8965C59.1647 18.0125 58.2073 18.1459 57.279 18.2968C56.3507 18.436 55.521 18.6101 54.79 18.819C54.2562 18.9698 53.7514 19.1787 53.2756 19.4456C52.8115 19.7125 52.4286 20.0606 52.1268 20.4899C51.8367 20.9077 51.6917 21.4299 51.6917 22.0565C51.6917 22.5903 51.8251 23.1008 52.092 23.5882C52.3589 24.0756 52.7825 24.4759 53.3627 24.7892C53.9429 25.1025 54.7087 25.2592 55.6603 25.2592Z" fill="white"/>
<path d="M77.891 27.6612C76.1504 27.6612 74.6767 27.2261 73.4698 26.3558C72.2746 25.4739 71.3695 24.2844 70.7545 22.7875C70.1395 21.279 69.832 19.5906 69.832 17.7224C69.832 15.8309 70.1395 14.1368 70.7545 12.6398C71.3695 11.1429 72.2804 9.96513 73.4872 9.10643C74.7057 8.24774 76.1968 7.81839 77.9606 7.81839C79.6896 7.81839 81.1749 8.25354 82.4165 9.12384C83.6581 9.99414 84.6097 11.1777 85.2711 12.6747C85.9441 14.16 86.2806 15.8425 86.2806 17.7224C86.2806 19.6022 85.9441 21.2906 85.2711 22.7875C84.6097 24.2844 83.6523 25.4739 82.3991 26.3558C81.1575 27.2261 79.6548 27.6612 77.891 27.6612ZM69.3446 35.4939V8.34057H71.8859V22.335H72.1818V35.4939H69.3446ZM77.5777 25.0503C78.8541 25.0503 79.9101 24.7312 80.7455 24.093C81.5926 23.4432 82.225 22.5671 82.6428 21.4647C83.0605 20.3507 83.2694 19.1033 83.2694 17.7224C83.2694 16.3531 83.0605 15.1173 82.6428 14.0149C82.2367 12.9125 81.6042 12.0422 80.7455 11.404C79.8984 10.7542 78.8193 10.4293 77.508 10.4293C76.2432 10.4293 75.193 10.7368 74.3575 11.3518C73.5221 11.9668 72.9012 12.8255 72.4951 13.9279C72.089 15.0303 71.8859 16.2951 71.8859 17.7224C71.8859 19.1381 72.089 20.3971 72.4951 21.4995C72.9012 22.6019 73.5221 23.4722 74.3575 24.1104C75.2046 24.737 76.278 25.0503 77.5777 25.0503Z" fill="white"/>
</svg>
